<?xml version="1.0" encoding="utf-8"?><!-- Uploaded to: SVG Repo, www.svgrepo.com, Generator: SVG Repo Mixer Tools -->
<svg width="800px" height="800px" viewBox="0 0 64 64" id="Layer_1" data-name="Layer 1" xmlns="http://www.w3.org/2000/svg"><defs><style>.cls-1{fill:none;stroke:#000000;stroke-linecap:round;stroke-linejoin:round;stroke-width:2px;}</style></defs><title>space, travel, rocket, moon, astronaut</title><path class="cls-1" d="M22,35.23a21.46,21.46,0,0,1,5.72-1.94,22.22,22.22,0,0,1,9.42.2"/><path class="cls-1" d="M9.75,55.12A22.1,22.1,0,0,1,16,39.65"/><path class="cls-1" d="M36.54,51.18V45.89a3.63,3.63,0,0,0-3.61-3.61h-.24V32.72a7.82,7.82,0,0,1,15.63,0v9.56"/><path class="cls-1" d="M45.44,43.43a3.6,3.6,0,0,0-1,2.46v5.29a7.78,7.78,0,0,1-5,1"/><path class="cls-1" d="M48.32,42.28a3.63,3.63,0,0,1,3.38,3.6v6.5a3.61,3.61,0,0,1-7.23,0v-6.5"/><path class="cls-1" d="M36.54,45.89v6.5a3.61,3.61,0,0,1-7.23,0v-6.5a3.62,3.62,0,0,1,3.38-3.6h.24a3.63,3.63,0,0,1,3.61,3.61Z"/><path class="cls-1" d="M43.83,33.51a3.32,3.32,0,1,1-3.32-3.32"/><path class="cls-1" d="M27.76,39.36V8h5.89a2.19,2.19,0,0,0,2.19,2.19h5.34a2.34,2.34,0,0,1,2.34,2.34v3.81a2.34,2.34,0,0,1-2.34,2.34H33.3v-.27a2.19,2.19,0,0,0-2.19-2.19H30.4"/><path class="cls-1" d="M19.18,18h1.07a2.31,2.31,0,0,1,2.31,2.31v6a1.64,1.64,0,0,1-1.64,1.64h-4a1.64,1.64,0,0,1-1.64-1.64v-6"/><path class="cls-1" d="M19,13.3A2.34,2.34,0,0,0,19,18"/><line class="cls-1" x1="22.35" y1="19.35" x2="27.76" y2="23.79"/><line class="cls-1" x1="16.03" y1="39.65" x2="15.27" y2="26.31"/><line class="cls-1" x1="22.56" y1="26.25" x2="21.81" y2="39.09"/><path class="cls-1" d="M18.88,31.81v7.43a.33.33,0,0,0,.33.33h2.24a.33.33,0,0,0,.33-.33"/><path class="cls-1" d="M14.2,49.17a2.91,2.91,0,1,1,2.91,2.91"/><path class="cls-1" d="M25.82,46a1.46,1.46,0,1,1-2.66-1.18"/><circle cx="24.03" cy="55.12" r="1"/><line class="cls-1" x1="51.7" y1="38.4" x2="51.7" y2="30.33"/><line class="cls-1" x1="48.32" y1="24.02" x2="48.32" y2="19.98"/><line class="cls-1" x1="32.64" y1="25.27" x2="32.64" y2="23.21"/><line class="cls-1" x1="52.03" y1="20" x2="52.03" y2="11.96"/><path class="cls-1" d="M15.27,20.21l-3,7.16-.1.13A10.34,10.34,0,0,1,23.37,10.25"/></svg>